<?xml version="1.0" encoding="UTF-8"?>
<svg id="Layer_1" xmlns="http://www.w3.org/2000/svg" version="1.1" viewBox="0 0 1443.4 894.5">
  <!-- Generator: Adobe Illustrator 29.5.1, SVG Export Plug-In . SVG Version: 2.1.0 Build 141)  -->
  <defs>
    <style>
      .st0 {
        fill: #010101;
      }

      .st1 {
        fill: #fff;
      }

      .st2 {
        fill: #050505;
      }

      .st3 {
        fill: #349ba4;
      }
    </style>
  </defs>
  <g>
    <path class="st1" d="M746.3,433.8v39.5l592,220.4c64.5,32,99.7,103.6,83.9,174.5-.8,3.5-1.9,8.1-3.8,11.2h-36.5c25.1-61.3-3.3-129.3-63.3-156l-589.8-218.5-592.6,214.6c-66.1,21.5-101,94.5-75.4,159.8H23.8c-21.5-75.2,13.6-153.4,84.3-186,7.2-3.3,14.8-6,22.1-8.8,188.6-72.9,382-134.1,570.6-206.8,3.5-1.3,7.4-2.5,10.5-4.5v-39.5h35Z"/>
    <path class="st1" d="M224.5,769.4c19.6,2.3,31,21.6,23,40-3.6,8.2-7.6,8.2-14.2,11.8-4.3,2.3,1.4,2.1,3.4,3,14.3,6.2,17.5,18.6,15,33.5-1.7,10.3-16.1,21.7-26.2,21.7h-77.4v-109.9h76.4,0ZM182.1,812.4h27.5c7.3,0,7.3-19,0-19h-27.5v19ZM182.1,854.3h30.5c2.6,0,5.7-7.5,5.6-10.5,0-2.7-3.5-9.5-5.6-9.5h-30.5v20Z"/>
    <path class="st1" d="M551.8,769.4v47c14.1-14.7,26.1-31.5,39.5-47h42.5l-38.6,45.5,39.6,64.4h-40.5l-23-40c-2.6,1.6-19.5,14.2-19.5,15.5v24.5h-34v-109.9h34Z"/>
    <polygon class="st1" points="1303.7 769.4 1303.7 795.4 1243.8 795.4 1243.8 811.4 1294.7 811.4 1294.7 836.3 1243.8 836.3 1243.8 853.3 1304.7 853.3 1304.7 879.3 1209.8 879.3 1209.8 769.4 1303.7 769.4"/>
    <path class="st1" d="M848.6,803.4h-32c-.4,0-1.2-5.5-3.3-7.7-10.5-10.5-39.1,2.7-20.9,10.4,20.2,8.7,58.6,4.1,59.1,36.8.5,34.5-37.5,40.2-64.2,36.2-20.9-3.1-38.5-13-36.6-36.8h32c.7,0-1,8.1,5.3,11.2,5.1,2.6,20.3,2.6,25.4,0,3.2-1.6,3.8-7.2,1.2-9.8-4.2-4.3-33.9-8.6-42.6-12.3-29.8-12.6-26.1-50,4.7-59.6,25.9-8.1,71.6-3.8,72,31.5h0Z"/>
    <path class="st1" d="M380.9,879.3h-37c-.8-3.4-2.1-11.8-3.9-14.4-1.1-1.6-33.6-.1-38.5-.5-2.4.8-3.2,12.6-6.1,14.9h-33.5l40.4-110c11.4,1.2,25-1.3,36.1,0,1.1.1,2.2,0,3,1l39.5,108.9h0ZM332,839.3l-11.5-38.9-12.5,38.9h24,0Z"/>
    <path class="st1" d="M497.8,814.4h-33c.9-15.2-10.2-21.9-24.4-19.9-9.8,1.3-14.8,11.4-15.6,20.3-1.1,12.9-1.4,37.1,15.6,39.4,15.4,2.1,25.3-4.1,26.4-19.9h31c1.6,41.5-41.9,52.6-75.2,42.7-46.3-13.9-46.7-98.5,9.9-107.5,31.9-5.1,66.2,7.8,65.3,44.8h0Z"/>
    <path class="st1" d="M688.7,852.3h47v27h-89.9c-4.4-29.6,26.5-43.7,45-60.4,2.3-2.1,10.8-10.2,11.5-12.4,7-22.4-33-21.3-28.5,1.9h-28c-1.1-21.6,11.8-35.2,32.6-38.8,27.2-4.7,59.9,4.6,55.2,38.2-2.7,19.7-31.8,32.8-44.9,44.5h0Z"/>
    <polygon class="st1" points="1012 769.4 1031.6 803.7 1034.9 806.4 1055.9 769.4 1092.4 769.4 1050.4 836.8 1050.4 879.3 1016.5 879.3 1016.5 836.8 973.5 769.4 1012 769.4"/>
    <polygon class="st1" points="967.5 769.4 967.5 797.4 931.5 797.4 931.5 879.3 897.5 879.3 897.5 797.4 861.6 797.4 861.6 769.4 967.5 769.4"/>
    <polygon class="st1" points="1141.4 769.4 1141.4 851.3 1197.3 851.3 1197.3 879.3 1106.4 879.3 1106.4 769.4 1141.4 769.4"/>
    <g>
      <path class="st1" d="M658.3,14.1l2.2,41.5c-25.7,9.2-49.2,24-69.1,43.8-35.3,35.3-54.7,82.2-54.7,132.1s5.8,53.6,16.8,77.7l18.9-18.9h0c-7.2-18.5-10.9-38.3-10.9-58.8,0-43.3,16.9-84,47.5-114.6,15.4-15.4,33.4-27.3,52.9-35.4l1.7,32.1h0,0s83.6-54.3,83.6-54.3h0s-88.8-45.3-88.8-45.3Z"/>
      <path class="st1" d="M893.3,309.8c11.2-24.2,17.1-50.8,17.1-78.3,0-49.9-19.4-96.8-54.7-132.1-24.9-24.9-55.5-41.8-88.9-49.7,0,0,0,25.6,0,25.6,26.7,7.4,51.2,21.5,71.3,41.7,30.6,30.6,47.5,71.3,47.5,114.6s-4.3,43.1-12.5,62.7l-32.3-24.9h0l-13.2,98.8h0s92.2-38,92.2-38h0s-26.4-20.4-26.4-20.4Z"/>
      <g>
        <path class="st1" d="M826.6,387.4l-16.9-18.6c-25.6,16.1-55.2,24.7-86.2,24.7s-62-9-87.9-25.9l26.5-21.7h0s-93.2-35.3-93.2-35.3h0s16,98.4,16,98.4h0l30.7-25.1c31.3,22.3,68.7,34.3,107.9,34.3s72.8-10.8,103.1-31Z"/>
        <polygon class="st1" points="809.7 368.8 809.7 368.9 809.7 368.9 809.7 368.8"/>
      </g>
    </g>
  </g>
  <g>
    <path class="st2" d="M-780.4,433.8v39.5l592,220.4c64.5,32,99.7,103.6,83.9,174.5-.8,3.5-1.9,8.1-3.8,11.2h-36.5c25.1-61.3-3.3-129.3-63.3-156l-589.8-218.5-592.6,214.6c-66.1,21.5-101,94.5-75.4,159.8h-37c-21.5-75.2,13.6-153.4,84.3-186,7.2-3.3,14.8-6,22.1-8.8,188.6-72.9,382-134.1,570.6-206.8,3.5-1.3,7.4-2.5,10.5-4.5v-39.5h35Z"/>
    <path class="st2" d="M-1302.1,769.4c19.6,2.3,31,21.6,23,40-3.6,8.2-7.6,8.2-14.2,11.8-4.3,2.3,1.4,2.1,3.4,3,14.3,6.2,17.5,18.6,15,33.5-1.7,10.3-16.1,21.7-26.2,21.7h-77.4v-109.9h76.4,0ZM-1344.6,812.4h27.5c7.3,0,7.3-19,0-19h-27.5v19ZM-1344.6,854.3h30.5c2.6,0,5.7-7.5,5.6-10.5,0-2.7-3.5-9.5-5.6-9.5h-30.5v20Z"/>
    <path class="st2" d="M-974.9,769.4v47c14.1-14.7,26.1-31.5,39.5-47h42.5l-38.6,45.5,39.6,64.4h-40.5l-23-40c-2.6,1.6-19.5,14.2-19.5,15.5v24.5h-34v-109.9h34Z"/>
    <polygon class="st2" points="-222.9 769.4 -222.9 795.4 -282.9 795.4 -282.9 811.4 -231.9 811.4 -231.9 836.3 -282.9 836.3 -282.9 853.3 -221.9 853.3 -221.9 879.3 -316.9 879.3 -316.9 769.4 -222.9 769.4"/>
    <path class="st2" d="M-678.1,803.4h-32c-.4,0-1.2-5.5-3.3-7.7-10.5-10.5-39.1,2.7-20.9,10.4,20.2,8.7,58.6,4.1,59.1,36.8.5,34.5-37.5,40.2-64.2,36.2-20.9-3.1-38.5-13-36.6-36.8h32c.7,0-1,8.1,5.3,11.2,5.1,2.6,20.3,2.6,25.4,0,3.2-1.6,3.8-7.2,1.2-9.8-4.2-4.3-33.9-8.6-42.6-12.3-29.8-12.6-26.1-50,4.7-59.6,25.9-8.1,71.6-3.8,72,31.5h0Z"/>
    <path class="st2" d="M-1145.7,879.3h-37c-.8-3.4-2.1-11.8-3.9-14.4-1.1-1.6-33.6-.1-38.5-.5-2.4.8-3.2,12.6-6.1,14.9h-33.5l40.4-110c11.4,1.2,25-1.3,36.1,0,1.1.1,2.2,0,3,1l39.5,108.9h0ZM-1194.7,839.3l-11.5-38.9-12.5,38.9h24,0Z"/>
    <path class="st2" d="M-1028.8,814.4h-33c.9-15.2-10.2-21.9-24.4-19.9-9.8,1.3-14.8,11.4-15.6,20.3-1.1,12.9-1.4,37.1,15.6,39.4,15.4,2.1,25.3-4.1,26.4-19.9h31c1.6,41.5-41.9,52.6-75.2,42.7-46.3-13.9-46.7-98.5,9.9-107.5,31.9-5.1,66.2,7.8,65.3,44.8h0Z"/>
    <path class="st3" d="M-838,852.3h47v27h-89.9c-4.4-29.6,26.5-43.7,45-60.4,2.3-2.1,10.8-10.2,11.5-12.4,7-22.4-33-21.3-28.5,1.9h-28c-1.1-21.6,11.8-35.2,32.6-38.8,27.2-4.7,59.9,4.6,55.3,38.2-2.7,19.7-31.8,32.8-44.9,44.5h0Z"/>
    <polygon class="st2" points="-514.7 769.4 -495 803.7 -491.7 806.4 -470.7 769.4 -434.3 769.4 -476.2 836.8 -476.2 879.3 -510.2 879.3 -510.2 836.8 -553.2 769.4 -514.7 769.4"/>
    <polygon class="st2" points="-559.2 769.4 -559.2 797.4 -595.1 797.4 -595.1 879.3 -629.1 879.3 -629.1 797.4 -665.1 797.4 -665.1 769.4 -559.2 769.4"/>
    <polygon class="st2" points="-385.3 769.4 -385.3 851.3 -329.3 851.3 -329.3 879.3 -420.3 879.3 -420.3 769.4 -385.3 769.4"/>
  </g>
  <g>
    <path class="st0" d="M-759.9,75.2c26.7,7.3,51.2,21.5,71.3,41.7,30.6,30.6,47.5,71.3,47.5,114.6s-5.3,47.8-15.4,69.2l17.8,19.6c14.6-27,22.3-57.3,22.3-88.8,0-49.9-19.4-96.8-54.7-132.1-24.9-24.9-55.5-41.8-88.9-49.7,0,0,0,25.6,0,25.6Z"/>
    <path class="st0" d="M-717,368.9c-25.6,16.1-55.2,24.8-86.2,24.8s-67.8-10.9-95.4-31l-17.7,17.7c32.3,24.7,71.7,38.1,113.1,38.1s72.8-10.8,103.1-31l-16.9-18.6h0Z"/>
    <path class="st0" d="M-954.3,290.3c-7.2-18.5-10.9-38.3-10.9-58.8,0-43.3,16.9-84,47.5-114.6,19.1-19.1,42.1-32.8,67.3-40.5v-25.7c-31.8,8.3-61,24.9-84.8,48.7-35.3,35.3-54.7,82.2-54.7,132.1s5.8,53.6,16.8,77.7l18.9-18.9h0Z"/>
  </g>
  <path class="st0" d="M-863.2,113.6h0l-5.2-99.6h0l88.8,45.3h0s-83.6,54.3-83.6,54.3h0Z"/>
  <path class="st0" d="M-699.2,368.1h0l13.2-98.8h0l79,60.8h0s-92.2,38-92.2,38h0Z"/>
  <path class="st0" d="M-957.8,310.7h0l93.2,35.3h0s-77.2,63.1-77.2,63.1h0l-16-98.4h0Z"/>
</svg>